<?xml version="1.0" encoding="UTF-8"?>
<!-- Generator: Adobe Illustrator 19.1.0, SVG Export Plug-In . SVG Version: 6.00 Build 0)  -->
<svg version="1.1" id="Layer_1" xmlns="http://www.w3.org/2000/svg" xmlns:xlink="http://www.w3.org/1999/xlink" x="0px" y="0px" viewBox="0 0 619.3 166.7" style="enable-background:new 0 0 619.3 166.7;" xml:space="preserve">
<style type="text/css">
	.st0{fill:#3C7383;}
	.st1{fill:#9BB7BF;}
</style>
<g>
	<path class="st0" d="M139.5,145.8V86.4h24.1c2.5,0,4.8,0.5,6.9,1.6c2.1,1.1,3.9,2.5,5.4,4.2c1.5,1.8,2.7,3.7,3.6,5.9   c0.9,2.2,1.3,4.4,1.3,6.7c0,2.4-0.4,4.7-1.2,7c-0.8,2.2-1.9,4.2-3.4,5.9c-1.5,1.7-3.2,3.1-5.2,4.1c-2,1-4.3,1.5-6.7,1.5h-20.5v22.4   H139.5z M143.8,119.5H164c1.9,0,3.7-0.4,5.2-1.2c1.5-0.8,2.8-1.9,3.9-3.3c1.1-1.4,1.9-2.9,2.5-4.7c0.6-1.8,0.9-3.6,0.9-5.5   c0-2-0.3-3.8-1-5.6c-0.7-1.8-1.6-3.3-2.8-4.6c-1.2-1.3-2.6-2.4-4.1-3.2c-1.6-0.8-3.2-1.2-5-1.2h-19.7V119.5z"/>
	<path class="st0" d="M224.6,145.8h-4.1v-24.3c0-5.4-0.9-9.5-2.7-12.1s-4.5-4-7.9-4c-1.8,0-3.5,0.3-5.2,1c-1.7,0.7-3.3,1.6-4.7,2.8   c-1.5,1.2-2.7,2.7-3.8,4.3c-1.1,1.6-1.9,3.4-2.4,5.3v27h-4.1V84.7h4.1v28c1.8-3.4,4.2-6.1,7.3-8.1s6.5-3,10-3   c2.4,0,4.4,0.4,6.1,1.3c1.7,0.9,3.1,2.2,4.3,3.9c1.1,1.7,2,3.7,2.5,6.1c0.5,2.4,0.8,5,0.8,8V145.8z"/>
	<path class="st0" d="M238.8,160.7c0.5,0,1.2,0,2.2-0.1c1-0.1,1.7-0.2,2.2-0.5c0.2-0.1,0.5-0.4,0.8-0.8c0.3-0.4,0.7-1.1,1.2-2.1   c0.5-1,1.1-2.4,1.9-4.2c0.8-1.8,1.7-4.2,2.9-7.1l-19.2-43.5h4.4l17,39.4l15.9-39.4h4l-23.5,57.3c-0.8,2-1.9,3.3-3.3,4   c-1.3,0.6-3,1-4.9,1c-0.3,0-0.6,0-0.8,0c-0.3,0-0.6,0-0.8-0.1V160.7z"/>
	<path class="st0" d="M318.2,146.7c-3,0-5.8-0.6-8.4-1.8c-2.6-1.2-4.8-2.8-6.6-4.9c-1.9-2.1-3.3-4.5-4.4-7.2c-1-2.7-1.6-5.6-1.6-8.6   c0-3.1,0.5-6,1.6-8.7s2.6-5.1,4.5-7.2s4.1-3.7,6.6-4.9c2.5-1.2,5.3-1.8,8.3-1.8s5.7,0.6,8.3,1.8c2.6,1.2,4.8,2.8,6.7,4.9   s3.4,4.5,4.5,7.2s1.6,5.6,1.6,8.7c0,3-0.5,5.9-1.6,8.6c-1.1,2.7-2.5,5.1-4.4,7.2c-1.9,2.1-4.1,3.7-6.7,4.9   C323.9,146.1,321.1,146.7,318.2,146.7z M301.4,124.3c0,2.6,0.4,5,1.3,7.2c0.9,2.3,2.1,4.2,3.6,5.9c1.5,1.7,3.3,3,5.3,4   c2,1,4.2,1.5,6.5,1.5s4.5-0.5,6.5-1.5c2-1,3.8-2.3,5.3-4.1c1.5-1.7,2.7-3.7,3.6-6s1.4-4.7,1.4-7.3c0-2.6-0.5-5-1.4-7.2   c-0.9-2.3-2.1-4.2-3.6-5.9c-1.5-1.7-3.3-3.1-5.3-4.1c-2-1-4.2-1.5-6.5-1.5c-2.3,0-4.4,0.5-6.4,1.5c-2,1-3.8,2.4-5.4,4.1   c-1.5,1.7-2.8,3.8-3.6,6.1C301.8,119.3,301.4,121.7,301.4,124.3z"/>
	<path class="st0" d="M405.7,146.7c-2.1,0-4-0.3-5.8-1c-1.8-0.7-3.3-1.7-4.6-2.9c-1.3-1.2-2.3-2.7-3.1-4.4s-1.1-3.5-1.1-5.4   c0-2.1,0.4-3.9,1.3-5.6c0.9-1.7,2.1-3.1,3.8-4.4c1.6-1.2,3.6-2.2,5.8-2.8s4.7-1,7.4-1c2,0,4,0.2,6,0.5c2,0.4,3.8,0.9,5.4,1.5v-3   c0-3.2-0.9-5.8-2.7-7.6c-1.8-1.8-4.4-2.7-7.8-2.7c-2.3,0-4.6,0.4-6.8,1.3c-2.2,0.9-4.5,2.1-6.9,3.7l-2.8-5.9   c5.6-3.8,11.3-5.7,17.3-5.7c5.9,0,10.6,1.5,13.9,4.6c3.3,3.1,5,7.5,5,13.2V135c0,1.1,0.2,1.8,0.6,2.3c0.4,0.4,1,0.7,2,0.8v7.9   c-0.9,0.2-1.7,0.3-2.4,0.3c-0.7,0.1-1.4,0.1-2,0.1c-1.8-0.1-3.1-0.6-4-1.4c-0.9-0.8-1.5-2-1.7-3.3l-0.2-2.8   c-1.9,2.6-4.3,4.5-7.1,5.9C412,146,408.9,146.7,405.7,146.7z M408.2,139.9c2.2,0,4.3-0.4,6.2-1.2c2-0.8,3.5-1.9,4.6-3.4   c1.2-1,1.7-2.1,1.7-3.2v-5.8c-1.5-0.6-3.2-1.1-4.9-1.4s-3.4-0.5-5.1-0.5c-3.2,0-5.9,0.7-8,2.1s-3.1,3.3-3.1,5.7   c0,2.2,0.8,4,2.4,5.5C403.7,139.2,405.7,139.9,408.2,139.9z"/>
	<path class="st0" d="M479.7,145.8h-9.1v-24.5c0-4.1-0.7-7.1-2-9c-1.3-1.9-3.2-2.8-5.7-2.8c-1.3,0-2.7,0.3-4,0.8   c-1.3,0.5-2.6,1.2-3.8,2.1c-1.2,0.9-2.2,2-3.1,3.3s-1.6,2.6-2.1,4.1v26h-9.1V102h8.3v8.8c1.7-3,4-5.3,7.2-7   c3.1-1.7,6.6-2.6,10.4-2.6c2.6,0,4.7,0.5,6.4,1.4c1.7,0.9,3,2.2,4,3.9c1,1.6,1.6,3.5,2,5.7c0.4,2.1,0.6,4.4,0.6,6.8V145.8z"/>
	<polygon class="st0" points="501.3,145.8 484.8,102 494.2,102 506.5,138.1 519,102 527.6,102 511.1,145.8  "/>
	<path class="st0" d="M544.3,146.7c-2.1,0-4-0.3-5.8-1c-1.8-0.7-3.3-1.7-4.6-2.9c-1.3-1.2-2.3-2.7-3.1-4.4s-1.1-3.5-1.1-5.4   c0-2.1,0.4-3.9,1.3-5.6c0.9-1.7,2.1-3.1,3.8-4.4c1.6-1.2,3.6-2.2,5.8-2.8c2.2-0.7,4.7-1,7.4-1c2,0,4,0.2,6,0.5   c2,0.4,3.8,0.9,5.4,1.5v-3c0-3.2-0.9-5.8-2.7-7.6c-1.8-1.8-4.4-2.7-7.8-2.7c-2.3,0-4.6,0.4-6.8,1.3c-2.2,0.9-4.5,2.1-6.9,3.7   l-2.8-5.9c5.6-3.8,11.3-5.7,17.3-5.7c5.9,0,10.6,1.5,13.9,4.6c3.3,3.1,5,7.5,5,13.2V135c0,1.1,0.2,1.8,0.6,2.3c0.4,0.4,1,0.7,2,0.8   v7.9c-0.9,0.2-1.7,0.3-2.4,0.3c-0.7,0.1-1.4,0.1-2,0.1c-1.8-0.1-3.1-0.6-4-1.4c-0.9-0.8-1.5-2-1.7-3.3l-0.2-2.8   c-1.9,2.6-4.3,4.5-7.1,5.9C550.6,146,547.6,146.7,544.3,146.7z M546.8,139.9c2.2,0,4.3-0.4,6.2-1.2c2-0.8,3.5-1.9,4.6-3.4   c1.2-1,1.7-2.1,1.7-3.2v-5.8c-1.5-0.6-3.2-1.1-4.9-1.4c-1.7-0.3-3.4-0.5-5.1-0.5c-3.2,0-5.9,0.7-8,2.1s-3.1,3.3-3.1,5.7   c0,2.2,0.8,4,2.4,5.5C542.3,139.2,544.3,139.9,546.8,139.9z"/>
	<path class="st0" d="M595.7,146.7c-1.8,0-3.5-0.1-5.3-0.4c-1.8-0.3-3.6-0.7-5.3-1.2c-1.7-0.5-3.4-1.2-5-1.9s-3-1.6-4.2-2.6l3.8-6.2   c5.3,3.7,10.5,5.6,15.8,5.6c2.8,0,4.9-0.5,6.5-1.6c1.6-1.1,2.4-2.6,2.4-4.5c0-1.8-0.9-3.2-2.7-4.1c-1.8-0.9-4.6-1.8-8.5-2.7   c-2.7-0.7-5-1.4-6.9-2.1c-1.9-0.7-3.5-1.5-4.7-2.3c-1.2-0.9-2.1-1.9-2.6-3.1c-0.6-1.2-0.8-2.6-0.8-4.3c0-2.2,0.4-4.2,1.3-5.9   c0.9-1.7,2.1-3.2,3.6-4.4c1.5-1.2,3.3-2.1,5.4-2.7c2.1-0.6,4.3-0.9,6.6-0.9c3.1,0,6.2,0.5,9.1,1.5c2.9,1,5.5,2.4,7.8,4.1l-3.9,5.6   c-4.1-3.1-8.5-4.7-13.2-4.7c-2.3,0-4.3,0.5-5.9,1.5c-1.6,1-2.4,2.5-2.4,4.6c0,0.9,0.2,1.6,0.5,2.3c0.3,0.6,0.9,1.1,1.6,1.6   c0.7,0.4,1.7,0.9,2.9,1.2c1.2,0.4,2.7,0.8,4.5,1.2c3,0.7,5.5,1.5,7.7,2.2c2.1,0.7,3.9,1.6,5.3,2.6c1.4,1,2.4,2.1,3.1,3.4   c0.7,1.3,1,2.9,1,4.7c0,2.1-0.4,3.9-1.2,5.6c-0.8,1.7-2,3.1-3.5,4.3c-1.5,1.2-3.4,2.1-5.5,2.7C600.8,146.4,598.3,146.7,595.7,146.7   z"/>
	<path class="st0" d="M345.5,124c0-3.1,0.5-6,1.6-8.7c1.1-2.7,2.6-5.1,4.6-7.2c2-2.1,4.4-3.7,7.1-4.9c2.8-1.2,5.9-1.8,9.4-1.8   c4.5,0,8.4,1,11.7,3c3.3,2,5.7,4.6,7.3,7.9l-8.9,2.8c-1.1-1.8-2.5-3.3-4.3-4.3c-1.8-1-3.8-1.5-5.9-1.5c-1.8,0-3.6,0.4-5.1,1.1   c-1.6,0.7-3,1.7-4.1,3c-1.2,1.3-2.1,2.9-2.8,4.6c-0.7,1.8-1,3.8-1,5.9c0,2.1,0.3,4.1,1,5.9c0.7,1.8,1.6,3.4,2.8,4.7   c1.2,1.3,2.6,2.4,4.2,3.1c1.6,0.8,3.3,1.1,5.1,1.1c1.1,0,2.2-0.2,3.3-0.5c1.1-0.3,2.1-0.7,3-1.3c0.9-0.6,1.7-1.2,2.4-1.9   c0.7-0.7,1.2-1.5,1.5-2.3l9,2.7c-1.4,3.3-3.9,6-7.3,8.1c-3.4,2.1-7.4,3.1-12,3.1c-3.4,0-6.5-0.6-9.3-1.8c-2.8-1.2-5.2-2.9-7.1-5   c-2-2.1-3.5-4.5-4.6-7.2C346.1,129.9,345.5,127,345.5,124z"/>
	<polygon class="st0" points="280.8,84.7 285.1,84.7 285.1,146.3 280.8,146.3  "/>
	<path class="st1" d="M110.6,105.2c0-0.2,0.1-0.3,0.1-0.5c0-0.1,0-0.3,0.1-0.4c0-0.2,0-0.4,0.1-0.6c0-0.2,0-0.4,0-0.6   c0-0.1,0-0.2,0-0.4c0-0.1,0-0.3,0-0.4l0-0.3c0-0.1,0-0.3,0-0.4c0-0.2,0-0.3,0-0.4l0-0.2c0-0.2,0-0.4-0.1-0.5l0-0.2   c0-0.2-0.1-0.4-0.1-0.6l0-0.1c0-0.2-0.1-0.3-0.1-0.5l-0.1-0.2c0-0.1-0.1-0.3-0.1-0.4l-0.1-0.2c0-0.1-0.1-0.3-0.1-0.4   c0-0.1-0.1-0.2-0.1-0.3c0-0.1-0.1-0.2-0.1-0.4l-0.1-0.2c-0.1-0.2-0.1-0.4-0.2-0.6c-0.1-0.2-0.2-0.4-0.3-0.6l-0.1-0.1   c-0.1-0.2-0.2-0.3-0.2-0.5l-0.1-0.2c-0.1-0.2-0.2-0.3-0.3-0.5l0-0.1c-0.1-0.2-0.2-0.4-0.3-0.5c-0.1-0.2-0.2-0.4-0.4-0.6l-0.1-0.1   c-0.1-0.2-0.2-0.3-0.4-0.5c-0.1-0.2-0.3-0.4-0.4-0.5l0,0c-0.1-0.2-0.3-0.3-0.4-0.5c-0.2-0.2-0.3-0.3-0.5-0.5   c-0.2-0.2-0.3-0.3-0.5-0.5c-0.2-0.2-0.4-0.3-0.5-0.5c-0.2-0.2-0.5-0.4-0.8-0.6l-0.4-0.2c-0.2-0.1-0.4-0.2-0.5-0.3   c-0.2-0.1-0.4-0.3-0.7-0.4l-0.1-0.1c-0.2-0.1-0.4-0.2-0.6-0.3c-0.2-0.1-0.4-0.2-0.7-0.3l-0.1,0c-3.1-1.3-5.9-3-8.4-5.1   c-3.1-2.7-5.6-5.9-7.4-9.5l0,0c-1.4-2.9-2.4-6.1-2.9-9.3c0-0.1,0-0.3-0.1-0.4c-0.8-5.1-4.2-9.6-9.3-11.7   c-5.1-2.1-10.7-1.2-14.8,1.9c-0.2,0.2-0.4,0.3-0.6,0.4c-1.9,1.6-3.5,3.6-4.4,6c-1,2.4-1.3,4.9-1,7.4l0,0c0,0.2,0.1,0.5,0.1,0.7l0,0   c0.8,5.1,4.2,9.6,9.3,11.7l0,0c2.2,0.9,4.2,2,6.1,3.3c0.4,0.3,0.8,0.6,1.2,0.9l0,0c0.4,0.3,0.7,0.6,1.1,0.9l0,0l0,0l0,0   c3.1,2.7,5.6,5.9,7.3,9.5c1.4,2.8,2.4,5.8,2.8,8.9l0,0.1c0,0.3,0.1,0.5,0.1,0.8c0,0.3,0.1,0.6,0.2,0.9c0.1,0.2,0.1,0.5,0.2,0.7   l0.1,0.2l0,0c0.1,0.2,0.1,0.4,0.2,0.6c0.1,0.2,0.2,0.5,0.3,0.7l0.1,0.3l0,0c0.1,0.2,0.2,0.4,0.3,0.6c0.1,0.3,0.3,0.5,0.4,0.8l0,0   c0.1,0.2,0.3,0.5,0.4,0.7c0.2,0.2,0.3,0.5,0.5,0.7c0.2,0.2,0.3,0.5,0.5,0.7c0.1,0.1,0.2,0.3,0.4,0.4c0.2,0.2,0.4,0.5,0.6,0.7   c0.2,0.2,0.3,0.3,0.5,0.5c0.1,0.1,0.3,0.2,0.4,0.4c0.2,0.2,0.4,0.4,0.6,0.5c0.2,0.2,0.5,0.3,0.7,0.5c0.2,0.2,0.5,0.3,0.7,0.5   c0.1,0.1,0.3,0.2,0.5,0.3l0.4,0.2l0.3,0.1c0.1,0.1,0.3,0.1,0.4,0.2c0.2,0.1,0.4,0.2,0.7,0.3l0.1,0c0.2,0.1,0.4,0.2,0.7,0.3   c7.6,2.7,16-1.1,19.1-8.6C110.1,107,110.4,106.1,110.6,105.2z"/>
	<path class="st1" d="M12.3,84.1c0.1,0.1,0.3,0.2,0.4,0.3c0.1,0.1,0.2,0.2,0.3,0.3c0.2,0.1,0.3,0.2,0.5,0.3c0.2,0.1,0.3,0.2,0.5,0.4   l0.3,0.2l0.3,0.2l0.2,0.1c0.1,0.1,0.2,0.1,0.4,0.2c0.1,0.1,0.3,0.1,0.4,0.2l0.2,0.1c0.2,0.1,0.3,0.1,0.5,0.2l0.1,0.1   c0.2,0.1,0.4,0.1,0.6,0.2l0.1,0c0.2,0.1,0.3,0.1,0.5,0.2l0.2,0.1c0.1,0,0.3,0.1,0.4,0.1l0.2,0.1c0.1,0,0.3,0.1,0.4,0.1   c0.1,0,0.2,0.1,0.3,0.1c0.1,0,0.2,0.1,0.4,0.1l0.2,0c0.2,0,0.4,0.1,0.6,0.1c0.2,0,0.4,0.1,0.6,0.1l0.1,0c0.2,0,0.4,0,0.5,0l0.2,0   c0.2,0,0.4,0,0.6,0l0.1,0c0.2,0,0.4,0,0.6,0c0.2,0,0.4,0,0.7,0l0.1,0c0.2,0,0.4,0,0.6-0.1c0.2,0,0.4-0.1,0.7-0.1l0.1,0   c0.2,0,0.4-0.1,0.6-0.1c0.2-0.1,0.5-0.1,0.7-0.2c0.2-0.1,0.4-0.1,0.7-0.2c0.2-0.1,0.4-0.2,0.7-0.2c0.3-0.1,0.6-0.2,0.9-0.4   c0.1-0.1,0.3-0.1,0.4-0.2c0.2-0.1,0.4-0.2,0.6-0.3c0.2-0.1,0.4-0.2,0.6-0.4l0.1-0.1c0.2-0.1,0.4-0.2,0.6-0.4   c0.2-0.1,0.4-0.3,0.6-0.4l0.1,0c2.7-2.1,5.6-3.7,8.6-4.7c3.9-1.4,7.9-1.9,11.9-1.7l0,0c3.3,0.2,6.5,0.9,9.5,2.1   c0.1,0.1,0.3,0.1,0.4,0.2c4.8,1.8,10.4,1.2,14.8-2.2c4.4-3.4,6.4-8.7,5.8-13.8c0-0.2-0.1-0.5-0.1-0.7c-0.4-2.4-1.4-4.8-3-6.9   c-1.6-2.1-3.6-3.6-5.9-4.6l0,0c-0.2-0.1-0.5-0.2-0.7-0.3l0,0c-4.8-1.8-10.4-1.1-14.7,2.2l0,0c-1.9,1.5-3.8,2.7-5.9,3.6   c-0.5,0.2-0.9,0.4-1.4,0.6l0,0c-0.4,0.2-0.9,0.3-1.3,0.5l0,0l0,0l0,0c-3.9,1.3-7.9,1.9-11.9,1.6c-3.1-0.2-6.2-0.9-9.2-2l0,0   c-0.3-0.1-0.5-0.2-0.8-0.3c-0.3-0.1-0.5-0.2-0.8-0.3c-0.2-0.1-0.5-0.1-0.7-0.2l-0.2-0.1l0,0c-0.2-0.1-0.4-0.1-0.7-0.1   c-0.3,0-0.5-0.1-0.8-0.1l-0.3,0l0,0c-0.2,0-0.5,0-0.7-0.1c-0.3,0-0.6,0-0.8,0l0,0c-0.3,0-0.6,0-0.9,0c-0.3,0-0.6,0-0.9,0.1   c-0.3,0-0.6,0.1-0.9,0.1c-0.2,0-0.4,0.1-0.5,0.1c-0.3,0.1-0.6,0.1-0.9,0.2c-0.2,0.1-0.5,0.1-0.7,0.2c-0.2,0.1-0.3,0.1-0.5,0.2   c-0.3,0.1-0.5,0.2-0.8,0.3c-0.3,0.1-0.5,0.2-0.8,0.3c-0.3,0.1-0.5,0.3-0.8,0.4c-0.2,0.1-0.3,0.2-0.5,0.3c-0.1,0.1-0.2,0.1-0.4,0.2   L14,59.9c-0.1,0.1-0.3,0.2-0.4,0.3c-0.2,0.1-0.4,0.3-0.6,0.4l-0.1,0c-0.2,0.1-0.4,0.3-0.6,0.5c-6.1,5.3-7.1,14.5-2,20.9   C10.9,82.8,11.6,83.5,12.3,84.1z"/>
	<path class="st1" d="M72.6,80.7c0.2-0.1,0.3-0.1,0.5-0.2c0.1-0.1,0.3-0.1,0.4-0.2c0.2-0.1,0.4-0.2,0.5-0.2c0.2-0.1,0.4-0.2,0.6-0.3   c0.1-0.1,0.2-0.1,0.3-0.2c0.1-0.1,0.2-0.1,0.3-0.2l0.2-0.1c0.1-0.1,0.2-0.1,0.4-0.2c0.1-0.1,0.2-0.2,0.4-0.2l0.2-0.1   c0.1-0.1,0.3-0.2,0.4-0.3l0.1-0.1c0.2-0.1,0.3-0.3,0.5-0.4l0,0c0.1-0.1,0.3-0.2,0.4-0.3l0.2-0.2c0.1-0.1,0.2-0.2,0.3-0.3l0.2-0.2   l0.3-0.3l0.2-0.3l0.2-0.3l0.1-0.2c0.1-0.1,0.3-0.3,0.4-0.5c0.1-0.2,0.2-0.3,0.4-0.5l0.1-0.1c0.1-0.1,0.2-0.3,0.3-0.4l0.1-0.1   c0.1-0.2,0.2-0.3,0.3-0.5l0-0.1c0.1-0.2,0.2-0.4,0.3-0.6c0.1-0.2,0.2-0.4,0.3-0.6l0-0.1c0.1-0.2,0.2-0.4,0.2-0.6   c0.1-0.2,0.2-0.4,0.2-0.6l0-0.1c0.1-0.2,0.1-0.4,0.2-0.6c0.1-0.2,0.1-0.4,0.2-0.7c0.1-0.2,0.1-0.5,0.1-0.7c0-0.2,0.1-0.5,0.1-0.7   c0-0.3,0.1-0.6,0.1-1c0-0.1,0-0.3,0-0.4c0-0.2,0-0.4,0-0.6c0-0.3,0-0.5,0-0.8l0-0.2c0-0.2,0-0.4,0-0.7c0-0.2,0-0.5-0.1-0.7l0-0.1   c-0.5-3.4-0.4-6.7,0.2-9.8c0.7-4,2.3-7.8,4.5-11.2l0,0c1.8-2.7,4-5.2,6.6-7.2c0.1-0.1,0.2-0.2,0.3-0.3c4-3.3,6.2-8.5,5.4-13.9   c-0.8-5.5-4.4-9.8-9.1-11.9c-0.2-0.1-0.5-0.2-0.7-0.3c-2.3-0.9-4.8-1.2-7.4-0.8c-2.6,0.4-4.9,1.4-6.9,2.8l0,0   c-0.2,0.2-0.4,0.3-0.6,0.5l0,0c-3.9,3.3-6.2,8.4-5.4,13.9l0,0c0.3,2.3,0.4,4.7,0.2,6.9c0,0.5-0.1,1-0.2,1.5l0,0   c-0.1,0.5-0.1,0.9-0.2,1.4l0,0l0,0l0,0c-0.7,4-2.3,7.8-4.5,11.1c-1.7,2.6-3.8,5-6.3,7l0,0c-0.2,0.2-0.4,0.3-0.6,0.5   c-0.2,0.2-0.4,0.4-0.7,0.6c-0.2,0.2-0.4,0.3-0.5,0.5l-0.2,0.2l0,0c-0.2,0.2-0.3,0.3-0.4,0.5c-0.2,0.2-0.3,0.4-0.5,0.6l-0.2,0.3l0,0   c-0.1,0.2-0.3,0.4-0.4,0.6c-0.2,0.2-0.3,0.5-0.5,0.7l0,0c-0.1,0.2-0.3,0.5-0.4,0.7c-0.1,0.3-0.3,0.5-0.4,0.8   c-0.1,0.3-0.2,0.5-0.3,0.8c-0.1,0.2-0.1,0.3-0.2,0.5c-0.1,0.3-0.2,0.6-0.3,0.9c-0.1,0.2-0.1,0.5-0.2,0.7c0,0.2-0.1,0.3-0.1,0.5   c0,0.3-0.1,0.6-0.1,0.8c0,0.3-0.1,0.6-0.1,0.8c0,0.3,0,0.6,0,0.9c0,0.2,0,0.4,0,0.5c0,0.1,0,0.3,0,0.4l0,0.3c0,0.2,0,0.3,0,0.5   c0,0.2,0,0.5,0.1,0.7l0,0.1c0,0.2,0.1,0.5,0.1,0.7c1.5,7.9,9,13.3,17.1,12.2C70.7,81.3,71.7,81,72.6,80.7z"/>
	<circle class="st0" cx="22.5" cy="72.6" r="15.2"/>
	<circle class="st0" cx="95.5" cy="102.1" r="15.2"/>
	<circle class="st0" cx="84.6" cy="23.9" r="15.2"/>
</g>
</svg>