<svg width="511" height="166" viewBox="0 0 511 166" fill="none" xmlns="http://www.w3.org/2000/svg">
<path d="M115 33.59C114.863 35.0908 114.285 36.5173 113.337 37.6893C112.39 38.8612 111.116 39.7259 109.677 40.1741C108.239 40.6222 106.699 40.6337 105.254 40.207C103.809 39.7804 102.522 38.9347 101.558 37.777C100.593 36.6193 99.993 35.2016 99.834 33.703C99.6749 32.2044 99.9638 30.6924 100.664 29.358C101.364 28.0236 102.445 26.9268 103.768 26.2062C105.092 25.4857 106.599 25.1738 108.1 25.31C109.098 25.3979 110.068 25.6821 110.956 26.1464C111.843 26.6107 112.63 27.2458 113.272 28.0153C113.913 28.7848 114.396 29.6734 114.692 30.6301C114.989 31.5868 115.093 32.5927 115 33.59V33.59ZM116.58 23.48C105.01 11.79 81.68 9.12 36.36 28.7C36.17 28.78 35.51 29.08 35.51 29.1C34.9012 29.4766 34.3982 30.0018 34.0483 30.6264C33.6984 31.2509 33.5132 31.9542 33.51 32.67C33.4949 33.2288 33.5937 33.7847 33.8003 34.3041C34.0069 34.8235 34.317 35.2954 34.7118 35.6911C35.1065 36.0868 35.5777 36.398 36.0966 36.6059C36.6155 36.8137 37.1712 36.9138 37.73 36.9C38.4166 36.7992 39.0883 36.6145 39.73 36.35C46.38 33.91 79.17 24.98 96.43 40.56C96.99 41.02 97.51 41.49 98.04 41.99C98.57 42.49 99.04 42.99 99.46 43.59C115 60.87 106.02 93.65 103.57 100.3C103.301 100.94 103.116 101.612 103.02 102.3C103.002 102.86 103.099 103.418 103.304 103.939C103.51 104.46 103.82 104.934 104.215 105.331C104.61 105.728 105.082 106.04 105.602 106.248C106.123 106.456 106.68 106.555 107.24 106.54C107.956 106.538 108.66 106.353 109.284 106.003C109.909 105.653 110.434 105.149 110.81 104.54C110.962 104.267 111.092 103.983 111.2 103.69C130.86 58.4 128.2 35.07 116.58 23.48" fill="#373E66"/>
<path d="M139.13 11.56C138.957 13.5096 138.209 15.3641 136.982 16.889C135.755 18.4139 134.103 19.5409 132.236 20.1275C130.368 20.714 128.369 20.7339 126.49 20.1846C124.612 19.6352 122.938 18.5414 121.681 17.0411C120.424 15.5409 119.64 13.7017 119.427 11.7559C119.215 9.81011 119.584 7.84507 120.489 6.10911C121.393 4.37315 122.791 2.94417 124.507 2.00276C126.223 1.06135 128.18 0.649756 130.13 0.819991C132.745 1.05629 135.161 2.319 136.847 4.33179C138.534 6.34459 139.355 8.94356 139.13 11.56" fill="#373E66"/>
<path d="M94 52C93.9087 53.0228 93.5161 53.9955 92.8719 54.7951C92.2276 55.5946 91.3606 56.1851 90.3807 56.4918C89.4007 56.7985 88.3518 56.8076 87.3667 56.518C86.3815 56.2284 85.5044 55.653 84.8464 54.8648C84.1883 54.0765 83.7789 53.1107 83.6699 52.0897C83.5609 51.0687 83.7572 50.0383 84.234 49.1288C84.7108 48.2194 85.4466 47.4718 86.3484 46.9808C87.2502 46.4897 88.2774 46.2771 89.3 46.37C89.9791 46.429 90.6397 46.6217 91.244 46.9371C91.8483 47.2524 92.3843 47.6841 92.8211 48.2073C93.2579 48.7306 93.5869 49.3351 93.7893 49.986C93.9916 50.6368 94.0632 51.3213 94 52" fill="#373E66"/>
<path d="M79.43 65.1C79.3636 65.8689 79.0706 66.6009 78.5881 67.2032C78.1055 67.8055 77.4551 68.2511 76.7191 68.4836C75.9832 68.716 75.1948 68.7249 74.4538 68.5091C73.7128 68.2932 73.0525 67.8624 72.5565 67.2711C72.0605 66.6798 71.7511 65.9547 71.6674 65.1874C71.5838 64.4202 71.7296 63.6454 72.0865 62.9611C72.4435 62.2768 72.9954 61.7138 73.6724 61.3433C74.3495 60.9729 75.1213 60.8116 75.89 60.88C76.9164 60.9766 77.8635 61.4736 78.5261 62.2635C79.1887 63.0533 79.5134 64.0724 79.43 65.1Z" fill="#373E66"/>
<path d="M510.22 123.74H0.429993V124.31H510.22V123.74Z" fill="#2D375F"/>
<path d="M220.06 23.88H213.73C212.766 23.9267 211.86 24.3522 211.208 25.0638C210.556 25.7755 210.212 26.7158 210.25 27.68V77.87L171.35 25.11C169.72 22.9 168.51 22.72 167.1 22.72H166.31C165.362 22.759 164.467 23.1665 163.815 23.8557C163.163 24.5449 162.806 25.4614 162.82 26.41V104.41C162.795 105.372 163.145 106.307 163.796 107.016C164.448 107.725 165.349 108.153 166.31 108.21H172.54C173.505 108.166 174.413 107.741 175.065 107.029C175.717 106.317 176.061 105.375 176.02 104.41V52.65L215.02 107.05C216.56 109.15 217.77 109.32 219.18 109.32H220.07C221.015 109.281 221.908 108.875 222.558 108.187C223.208 107.5 223.564 106.586 223.55 105.64V27.64C223.567 26.6837 223.213 25.758 222.562 25.057C221.912 24.3559 221.015 23.9341 220.06 23.88V23.88Z" fill="#373E66"/>
<path d="M248.37 23.88H241.84C240.88 23.9368 239.979 24.3653 239.33 25.0747C238.68 25.784 238.332 26.7185 238.36 27.68V104.36C238.332 105.321 238.68 106.256 239.33 106.965C239.979 107.675 240.88 108.103 241.84 108.16H248.37C249.33 108.103 250.231 107.675 250.88 106.965C251.53 106.256 251.878 105.321 251.85 104.36V27.68C251.878 26.7185 251.53 25.784 250.88 25.0747C250.231 24.3653 249.33 23.9368 248.37 23.88Z" fill="#373E66"/>
<path d="M293.28 23.88H270.7C269.736 23.9267 268.83 24.3522 268.178 25.0639C267.526 25.7755 267.182 26.7158 267.22 27.68V104.36C267.179 105.325 267.523 106.267 268.175 106.979C268.827 107.691 269.735 108.116 270.7 108.16H277.14C278.1 108.103 279.001 107.675 279.65 106.965C280.3 106.256 280.648 105.321 280.62 104.36V78.74H293.37C306.43 78.74 317.05 66.33 317.05 51.08C317.05 36.08 306.39 23.88 293.28 23.88ZM303.65 51C303.65 58.42 299.01 64.23 293.08 64.23H280.62V38.67H293.08C299 38.67 303.65 44.07 303.65 51Z" fill="#373E66"/>
<path d="M381.72 23.88H375.19C374.226 23.9267 373.32 24.3522 372.668 25.0639C372.016 25.7755 371.672 26.7158 371.71 27.68V58.4H338.71V27.68C338.748 26.7158 338.404 25.7755 337.752 25.0639C337.1 24.3522 336.194 23.9267 335.23 23.88H328.69C327.73 23.9368 326.829 24.3653 326.18 25.0747C325.53 25.784 325.182 26.7185 325.21 27.68V104.36C325.182 105.321 325.53 106.256 326.18 106.965C326.829 107.675 327.73 108.103 328.69 108.16H335.23C336.194 108.113 337.1 107.688 337.752 106.976C338.404 106.264 338.748 105.324 338.71 104.36V72.49H371.71V104.36C371.669 105.325 372.013 106.267 372.665 106.979C373.317 107.691 374.225 108.116 375.19 108.16H381.72C382.681 108.103 383.582 107.675 384.234 106.966C384.885 106.257 385.235 105.322 385.21 104.36V27.68C385.235 26.7176 384.885 25.7831 384.234 25.074C383.582 24.3649 382.681 23.9368 381.72 23.88Z" fill="#373E66"/>
<path d="M0.540009 135.66C0.547716 135.503 0.61537 135.356 0.728943 135.248C0.842515 135.14 0.993293 135.08 1.15001 135.08H1.41001C1.60546 135.052 1.80471 135.083 1.98266 135.169C2.16061 135.254 2.30931 135.39 2.41001 135.56L16 151.33H16.07V136C16.0687 135.919 16.0835 135.839 16.1135 135.763C16.1436 135.688 16.1883 135.62 16.2451 135.562C16.3019 135.504 16.3696 135.459 16.4442 135.427C16.5189 135.396 16.5991 135.38 16.68 135.38H18.75C18.9129 135.385 19.0677 135.452 19.1829 135.567C19.2981 135.682 19.365 135.837 19.37 136V157.79C19.3622 157.948 19.2932 158.097 19.1775 158.206C19.0617 158.314 18.9084 158.373 18.75 158.37H18.46C18.2771 158.389 18.0926 158.357 17.9268 158.277C17.7609 158.198 17.6202 158.074 17.52 157.92L3.87001 141.68H3.81001V157.45C3.81001 157.614 3.74469 157.772 3.62841 157.888C3.51214 158.005 3.35444 158.07 3.19001 158.07H1.19001C1.02813 158.065 0.874438 157.998 0.760849 157.882C0.64726 157.767 0.582499 157.612 0.580009 157.45L0.540009 135.66Z" fill="#373E66"/>
<path d="M31.26 142.78C32.8155 142.744 34.3463 143.173 35.6567 144.012C36.967 144.851 37.9973 146.062 38.6157 147.49C39.2341 148.918 39.4126 150.497 39.1282 152.027C38.8438 153.557 38.1096 154.967 37.0194 156.077C35.9293 157.187 34.5327 157.947 33.0084 158.259C31.4841 158.571 29.9013 158.421 28.4626 157.829C27.0239 157.237 25.7945 156.228 24.9319 154.934C24.0692 153.639 23.6124 152.116 23.62 150.56C23.6171 148.52 24.4167 146.56 25.8461 145.105C27.2755 143.649 29.2201 142.814 31.26 142.78V142.78ZM31.26 155.35C32.208 155.408 33.1515 155.18 33.9689 154.697C34.7862 154.213 35.4398 153.495 35.8452 152.637C36.2506 151.778 36.3893 150.817 36.2433 149.879C36.0973 148.94 35.6733 148.067 35.0261 147.372C34.3789 146.677 33.5382 146.192 32.6126 145.979C31.6869 145.767 30.7188 145.837 29.8333 146.18C28.9477 146.523 28.1854 147.124 27.6447 147.905C27.104 148.685 26.8098 149.61 26.8 150.56C26.7648 151.171 26.8537 151.782 27.0611 152.357C27.2686 152.932 27.5904 153.46 28.0071 153.907C28.4239 154.355 28.9269 154.714 29.486 154.961C30.045 155.209 30.6485 155.342 31.26 155.35V155.35Z" fill="#373E66"/>
<path d="M42.47 143.82C42.4774 143.634 42.5546 143.458 42.6862 143.326C42.8177 143.195 42.9941 143.117 43.18 143.11H44C44.1497 143.116 44.2937 143.169 44.4107 143.263C44.5277 143.357 44.6116 143.485 44.65 143.63L45 145C45.5341 144.308 46.2207 143.748 47.0064 143.365C47.7922 142.982 48.6558 142.785 49.53 142.79C50.95 142.79 52.73 143.18 52.25 144.19L51.47 145.81C51.4379 145.896 51.3878 145.975 51.3229 146.041C51.2581 146.106 51.1801 146.157 51.094 146.19C51.0079 146.223 50.9158 146.238 50.8237 146.233C50.7317 146.227 50.6418 146.203 50.56 146.16C50.1328 145.978 49.6744 145.879 49.21 145.87C48.5013 145.882 47.8069 146.071 47.1903 146.42C46.5736 146.77 46.0543 147.268 45.68 147.87V157.36C45.68 158 45.25 158.07 44.68 158.07H43.19C43.0025 158.067 42.8234 157.992 42.6908 157.859C42.5582 157.727 42.4826 157.548 42.48 157.36L42.47 143.82Z" fill="#373E66"/>
<path d="M53.87 144C53.8069 143.915 53.7705 143.814 53.7654 143.708C53.7604 143.603 53.787 143.498 53.8418 143.408C53.8966 143.318 53.9771 143.246 54.073 143.202C54.1689 143.158 54.2758 143.143 54.38 143.16H56.38C56.5211 143.155 56.6598 143.197 56.7753 143.278C56.8907 143.359 56.9766 143.476 57.02 143.61L59.48 152.19H59.55L63.55 143.19C63.6088 143.08 63.6968 142.988 63.8044 142.924C63.912 142.861 64.0351 142.828 64.16 142.83H64.39C64.5221 142.816 64.6553 142.844 64.7715 142.908C64.8877 142.972 64.9814 143.071 65.04 143.19L69.04 152.19H69.11L71.5 143.57C71.7 143.12 72.25 143.12 72.64 143.12H74C74.51 143.12 74.8 143.51 74.58 143.96L70.31 158C70.2492 158.125 70.1514 158.229 70.0298 158.297C69.9082 158.365 69.7686 158.394 69.63 158.38H69.5C69.3713 158.387 69.2431 158.358 69.13 158.296C69.0169 158.235 68.9233 158.142 68.86 158.03L64.29 147.86H64.23L59.63 158.03C59.5835 158.143 59.502 158.238 59.3976 158.301C59.2932 158.364 59.1714 158.391 59.05 158.38H58.85C58.7207 158.393 58.5908 158.362 58.4805 158.294C58.3702 158.225 58.2856 158.122 58.24 158L53.87 144Z" fill="#373E66"/>
<path d="M84.63 142.78C85.5364 142.758 86.4378 142.921 87.2791 143.259C88.1204 143.597 88.884 144.102 89.5232 144.745C90.1624 145.388 90.6639 146.155 90.9969 146.998C91.3299 147.841 91.4875 148.744 91.46 149.65C91.4551 149.984 91.4317 150.318 91.39 150.65C91.3775 150.822 91.3006 150.984 91.1747 151.103C91.0488 151.221 90.8829 151.288 90.71 151.29H80.38C80.4569 152.415 80.9644 153.466 81.797 154.226C82.6296 154.986 83.7231 155.396 84.85 155.37C86.1784 155.382 87.4707 154.937 88.51 154.11C88.84 153.88 89.13 153.79 89.39 154.17L90.26 155.53C90.52 155.86 90.65 156.15 90.19 156.53C88.6199 157.774 86.6622 158.425 84.66 158.37C80.13 158.37 77.18 154.81 77.18 150.54C77.18 146.27 80.13 142.78 84.63 142.78ZM88.25 148.94C88.2333 148.474 88.1243 148.015 87.9294 147.591C87.7345 147.167 87.4574 146.786 87.1142 146.47C86.7711 146.154 86.3687 145.909 85.9303 145.749C85.4918 145.59 85.0261 145.519 84.56 145.54C83.5833 145.481 82.6216 145.802 81.876 146.435C81.1305 147.069 80.6589 147.967 80.56 148.94H88.25Z" fill="#373E66"/>
<path d="M108.26 158.16C108.26 162.83 105.26 165.16 101.33 165.16C99.4364 165.16 97.603 164.494 96.15 163.28C96.0328 163.178 95.9532 163.04 95.9242 162.888C95.8952 162.735 95.9184 162.578 95.99 162.44L96.77 161.01C96.8095 160.918 96.8703 160.837 96.9474 160.773C97.0246 160.709 97.1158 160.665 97.2135 160.643C97.3113 160.622 97.4127 160.624 97.5095 160.649C97.6063 160.675 97.6956 160.723 97.77 160.79C98.7425 161.641 99.9784 162.132 101.27 162.18C103.27 162.18 104.99 161.18 104.99 158.18V157.38C103.826 158.048 102.512 158.413 101.17 158.44C97.09 158.44 93.95 154.98 93.95 150.61C93.95 146.24 96.95 142.8 101.01 142.8C102.756 142.78 104.445 143.419 105.74 144.59L106.13 143.65C106.22 143.36 106.32 143.13 106.68 143.13H107.55C107.736 143.137 107.912 143.215 108.044 143.346C108.175 143.478 108.253 143.654 108.26 143.84V158.16ZM101.56 155.35C102.81 155.32 104.02 154.901 105.02 154.15V148C104.644 147.377 104.119 146.858 103.492 146.49C102.866 146.121 102.157 145.915 101.43 145.89C98.87 145.89 97.19 148.09 97.19 150.62C97.1571 151.823 97.5957 152.991 98.4122 153.875C99.2287 154.758 100.358 155.288 101.56 155.35V155.35Z" fill="#373E66"/>
<path d="M112.28 137.73C112.273 137.445 112.323 137.162 112.427 136.896C112.531 136.631 112.687 136.389 112.885 136.184C113.083 135.98 113.32 135.816 113.582 135.704C113.844 135.592 114.125 135.533 114.41 135.53C114.709 135.51 115.01 135.551 115.292 135.652C115.575 135.752 115.834 135.91 116.053 136.115C116.272 136.32 116.447 136.568 116.567 136.843C116.686 137.118 116.748 137.415 116.748 137.715C116.748 138.015 116.686 138.312 116.567 138.587C116.447 138.862 116.272 139.11 116.053 139.315C115.834 139.52 115.575 139.678 115.292 139.778C115.01 139.879 114.709 139.92 114.41 139.9C114.127 139.899 113.848 139.841 113.587 139.731C113.327 139.621 113.091 139.461 112.893 139.259C112.695 139.057 112.538 138.818 112.433 138.556C112.328 138.293 112.276 138.013 112.28 137.73V137.73ZM112.8 143.82C112.807 143.634 112.885 143.458 113.016 143.326C113.148 143.195 113.324 143.117 113.51 143.11H115.32C115.504 143.122 115.678 143.2 115.809 143.331C115.94 143.462 116.018 143.636 116.03 143.82V157.36C116.023 157.546 115.945 157.722 115.814 157.854C115.682 157.985 115.506 158.063 115.32 158.07H113.51C113.322 158.067 113.143 157.992 113.011 157.859C112.878 157.727 112.803 157.547 112.8 157.36V143.82Z" fill="#373E66"/>
<path d="M125.42 148.61C126.436 148.627 127.445 148.782 128.42 149.07C128.49 146.7 127.91 145.63 126.03 145.63C124.61 145.674 123.203 145.916 121.85 146.35C121.754 146.37 121.654 146.37 121.558 146.349C121.461 146.328 121.371 146.286 121.291 146.228C121.212 146.169 121.146 146.095 121.097 146.009C121.049 145.923 121.019 145.828 121.01 145.73L120.72 144.5C120.69 144.411 120.678 144.318 120.686 144.224C120.694 144.131 120.722 144.04 120.767 143.958C120.812 143.877 120.874 143.805 120.949 143.748C121.023 143.692 121.109 143.651 121.2 143.63C122.858 143.065 124.598 142.778 126.35 142.78C131.14 142.78 131.6 145.67 131.6 149.39V157.39C131.59 157.575 131.512 157.75 131.381 157.881C131.25 158.012 131.075 158.09 130.89 158.1H129.82C129.53 158.1 129.36 157.97 129.2 157.58L128.85 156.58C127.623 157.785 125.97 158.457 124.25 158.45C123.592 158.484 122.935 158.376 122.322 158.135C121.709 157.893 121.155 157.523 120.697 157.049C120.24 156.575 119.889 156.009 119.668 155.388C119.448 154.767 119.363 154.106 119.42 153.45C119.43 150.69 121.57 148.61 125.42 148.61ZM124.94 155.77C125.611 155.743 126.267 155.571 126.865 155.266C127.462 154.96 127.986 154.528 128.4 154V151.5C127.538 151.146 126.612 150.972 125.68 150.99C123.93 150.99 122.61 151.89 122.61 153.44C122.588 153.752 122.633 154.065 122.742 154.357C122.851 154.65 123.022 154.916 123.243 155.137C123.464 155.358 123.73 155.529 124.023 155.638C124.315 155.747 124.628 155.792 124.94 155.77V155.77Z" fill="#373E66"/>
<path d="M136 143.82C136.01 143.635 136.088 143.46 136.219 143.329C136.35 143.198 136.525 143.12 136.71 143.11H137.49C137.63 143.097 137.771 143.135 137.885 143.218C137.999 143.301 138.079 143.422 138.11 143.56L138.56 144.86C139.204 144.186 139.981 143.653 140.842 143.295C141.702 142.937 142.628 142.762 143.56 142.78C148.12 142.78 149.35 145.96 149.35 149.84V157.36C149.343 157.546 149.265 157.722 149.134 157.854C149.002 157.985 148.826 158.063 148.64 158.07H146.83C146.643 158.067 146.463 157.992 146.331 157.859C146.198 157.727 146.123 157.547 146.12 157.36V149.71C146.12 147.29 145.12 145.86 143.12 145.86C142.33 145.849 141.551 146.043 140.858 146.423C140.166 146.803 139.584 147.357 139.17 148.03V157.36C139.17 157.84 138.91 158.07 138.3 158.07H136.64C136.453 158.065 136.276 157.989 136.144 157.856C136.011 157.724 135.935 157.547 135.93 157.36L136 143.82Z" fill="#373E66"/>
<path d="M162.21 136C162.212 135.838 162.277 135.683 162.391 135.568C162.504 135.452 162.658 135.385 162.82 135.38H165C165.162 135.385 165.316 135.452 165.429 135.568C165.543 135.683 165.608 135.838 165.61 136V157.43C165.608 157.592 165.543 157.747 165.429 157.862C165.316 157.978 165.162 158.045 165 158.05H162.86C162.698 158.045 162.544 157.978 162.431 157.862C162.317 157.747 162.252 157.592 162.25 157.43L162.21 136Z" fill="#373E66"/>
<path d="M170.79 143.82C170.797 143.634 170.875 143.458 171.006 143.326C171.138 143.195 171.314 143.117 171.5 143.11H172.28C172.419 143.097 172.558 143.136 172.671 143.219C172.783 143.302 172.861 143.423 172.89 143.56L173.34 144.86C173.985 144.187 174.762 143.655 175.622 143.297C176.483 142.939 177.408 142.763 178.34 142.78C182.91 142.78 184.14 145.96 184.14 149.84V157.36C184.13 157.545 184.052 157.72 183.921 157.851C183.79 157.982 183.615 158.06 183.43 158.07H181.61C181.423 158.065 181.246 157.989 181.114 157.856C180.981 157.724 180.905 157.547 180.9 157.36V149.71C180.9 147.29 179.9 145.86 177.96 145.86C177.171 145.841 176.39 146.028 175.695 146.403C175.001 146.779 174.416 147.329 174 148V157.33C174 157.81 173.74 158.04 173.12 158.04H171.5C171.313 158.037 171.133 157.962 171.001 157.829C170.868 157.697 170.793 157.518 170.79 157.33V143.82Z" fill="#373E66"/>
<path d="M187.92 156.9C187.788 156.828 187.688 156.708 187.64 156.566C187.592 156.423 187.599 156.268 187.66 156.13L188.34 154.73C188.387 154.645 188.452 154.571 188.531 154.514C188.609 154.457 188.7 154.418 188.795 154.399C188.891 154.381 188.989 154.384 189.083 154.409C189.178 154.433 189.265 154.478 189.34 154.54C190.452 155.25 191.741 155.631 193.06 155.64C194.33 155.64 195.06 155.02 195.06 154.18C195.06 153.18 193.92 152.53 191.85 151.59C189.55 150.59 187.8 149.33 187.8 146.86C187.8 144.99 189.13 142.78 192.8 142.78C194.331 142.739 195.844 143.123 197.17 143.89C197.347 144.004 197.478 144.178 197.537 144.38C197.595 144.582 197.579 144.799 197.49 144.99L196.97 145.99C196.929 146.08 196.868 146.159 196.793 146.223C196.719 146.288 196.631 146.335 196.536 146.363C196.441 146.39 196.342 146.397 196.244 146.383C196.146 146.369 196.053 146.333 195.97 146.28C194.968 145.808 193.877 145.556 192.77 145.54C191.47 145.54 190.86 146.19 190.86 146.87C190.86 147.87 191.93 148.42 193.42 149.07C196.17 150.23 198.24 151.24 198.24 154.07C198.24 156.4 196.24 158.44 192.9 158.44C191.121 158.454 189.381 157.916 187.92 156.9V156.9Z" fill="#373E66"/>
<path d="M202.62 145.86H200.9C200.712 145.857 200.533 145.782 200.401 145.649C200.268 145.517 200.193 145.337 200.19 145.15V143.82C200.186 143.726 200.201 143.631 200.235 143.543C200.27 143.455 200.322 143.375 200.388 143.308C200.455 143.242 200.535 143.19 200.623 143.155C200.711 143.121 200.806 143.106 200.9 143.11H202.62V138.93C202.62 138.742 202.695 138.561 202.828 138.428C202.961 138.295 203.142 138.22 203.33 138.22H205.17C205.261 138.221 205.352 138.241 205.436 138.277C205.52 138.314 205.595 138.367 205.659 138.433C205.722 138.499 205.771 138.577 205.804 138.662C205.837 138.747 205.853 138.839 205.85 138.93V143.11H209.8C209.894 143.107 209.988 143.124 210.076 143.158C210.164 143.193 210.244 143.245 210.312 143.311C210.379 143.378 210.432 143.457 210.468 143.544C210.504 143.632 210.521 143.726 210.52 143.82V145.15C210.51 145.337 210.431 145.513 210.298 145.645C210.164 145.776 209.987 145.853 209.8 145.86H205.85V153.86C205.85 155.12 206.34 155.38 207.05 155.38C207.897 155.351 208.723 155.106 209.45 154.67C209.524 154.617 209.611 154.582 209.701 154.57C209.792 154.558 209.884 154.568 209.97 154.599C210.056 154.631 210.132 154.683 210.193 154.751C210.255 154.819 210.298 154.901 210.32 154.99L210.91 156.51C211.07 156.9 210.91 157.16 210.55 157.39C209.27 158.068 207.848 158.431 206.4 158.45C203.4 158.45 202.62 156.64 202.62 153.99V145.86Z" fill="#373E66"/>
<path d="M213.4 137.73C213.393 137.444 213.444 137.16 213.548 136.894C213.653 136.628 213.809 136.386 214.008 136.181C214.208 135.976 214.446 135.813 214.709 135.701C214.972 135.589 215.254 135.531 215.54 135.53C215.839 135.51 216.14 135.551 216.422 135.652C216.705 135.752 216.964 135.91 217.183 136.115C217.402 136.32 217.577 136.568 217.697 136.843C217.816 137.118 217.878 137.415 217.878 137.715C217.878 138.015 217.816 138.312 217.697 138.587C217.577 138.862 217.402 139.11 217.183 139.315C216.964 139.52 216.705 139.678 216.422 139.778C216.14 139.879 215.839 139.92 215.54 139.9C215.256 139.9 214.976 139.844 214.714 139.734C214.452 139.625 214.215 139.465 214.016 139.263C213.817 139.061 213.66 138.821 213.554 138.558C213.448 138.295 213.396 138.014 213.4 137.73V137.73ZM213.92 143.82C213.927 143.634 214.005 143.458 214.136 143.326C214.268 143.195 214.444 143.117 214.63 143.11H216.44C216.624 143.122 216.798 143.2 216.929 143.331C217.06 143.462 217.138 143.636 217.15 143.82V157.36C217.143 157.546 217.065 157.722 216.934 157.854C216.802 157.985 216.626 158.063 216.44 158.07H214.63C214.443 158.067 214.263 157.992 214.131 157.859C213.998 157.727 213.923 157.547 213.92 157.36V143.82Z" fill="#373E66"/>
<path d="M222.69 145.86H221C220.812 145.857 220.633 145.782 220.501 145.649C220.368 145.517 220.293 145.337 220.29 145.15V143.82C220.286 143.726 220.301 143.631 220.335 143.543C220.37 143.455 220.422 143.375 220.488 143.308C220.555 143.242 220.635 143.19 220.723 143.155C220.811 143.121 220.906 143.106 221 143.11H222.72V138.93C222.72 138.837 222.738 138.744 222.774 138.658C222.81 138.572 222.862 138.494 222.928 138.428C222.994 138.362 223.072 138.31 223.158 138.274C223.244 138.238 223.337 138.22 223.43 138.22H225.28C225.371 138.221 225.462 138.241 225.546 138.277C225.63 138.314 225.705 138.367 225.769 138.433C225.832 138.499 225.881 138.577 225.914 138.662C225.947 138.747 225.963 138.839 225.96 138.93V143.11H229.91C230.004 143.107 230.098 143.124 230.185 143.158C230.272 143.193 230.352 143.245 230.418 143.312C230.485 143.378 230.537 143.458 230.572 143.545C230.606 143.632 230.623 143.726 230.62 143.82V145.15C230.613 145.336 230.535 145.512 230.404 145.644C230.272 145.775 230.096 145.853 229.91 145.86H225.96V153.86C225.96 155.12 226.45 155.38 227.16 155.38C228.004 155.349 228.826 155.105 229.55 154.67C229.625 154.617 229.712 154.583 229.803 154.571C229.894 154.558 229.987 154.568 230.074 154.6C230.16 154.631 230.238 154.683 230.3 154.751C230.362 154.819 230.406 154.901 230.43 154.99L231.01 156.51C231.17 156.9 231.01 157.16 230.65 157.39C229.374 158.068 227.955 158.431 226.51 158.45C223.51 158.45 222.72 156.64 222.72 153.99L222.69 145.86Z" fill="#373E66"/>
<path d="M233.83 143.82C233.844 143.636 233.923 143.464 234.053 143.333C234.184 143.203 234.356 143.124 234.54 143.11H236.35C236.537 143.117 236.714 143.194 236.848 143.325C236.981 143.457 237.06 143.633 237.07 143.82V151.82C237.07 154.28 238.07 155.38 239.98 155.38C240.746 155.381 241.494 155.146 242.12 154.705C242.747 154.265 243.222 153.641 243.48 152.92V143.85C243.48 143.24 243.77 143.14 244.32 143.14H246C246.19 143.147 246.371 143.222 246.509 143.353C246.647 143.484 246.733 143.661 246.75 143.85V157.39C246.737 157.581 246.653 157.76 246.514 157.892C246.375 158.024 246.191 158.098 246 158.1H245.22C244.84 158.1 244.67 157.84 244.54 157.48L244.16 156.41C243.569 157.073 242.838 157.596 242.02 157.942C241.202 158.287 240.317 158.447 239.43 158.41C234.96 158.41 233.86 155.47 233.86 151.55L233.83 143.82Z" fill="#373E66"/>
<path d="M252.25 145.86H250.54C250.352 145.857 250.171 145.782 250.037 145.65C249.903 145.518 249.825 145.338 249.82 145.15V143.82C249.817 143.725 249.834 143.631 249.869 143.543C249.905 143.455 249.958 143.375 250.025 143.308C250.093 143.241 250.173 143.189 250.262 143.155C250.351 143.121 250.445 143.106 250.54 143.11H252.25V138.93C252.253 138.742 252.328 138.563 252.461 138.431C252.593 138.298 252.772 138.223 252.96 138.22H254.81C254.901 138.221 254.992 138.241 255.076 138.277C255.16 138.314 255.235 138.367 255.299 138.433C255.362 138.499 255.411 138.577 255.444 138.662C255.477 138.747 255.493 138.839 255.49 138.93V143.11H259.44C259.534 143.107 259.628 143.124 259.715 143.158C259.802 143.193 259.882 143.245 259.948 143.312C260.015 143.378 260.067 143.458 260.102 143.545C260.136 143.632 260.153 143.726 260.15 143.82V145.15C260.143 145.336 260.065 145.512 259.934 145.644C259.802 145.775 259.626 145.853 259.44 145.86H255.49V153.86C255.49 155.12 255.98 155.38 256.69 155.38C257.537 155.347 258.362 155.103 259.09 154.67C259.164 154.617 259.251 154.582 259.341 154.57C259.432 154.558 259.524 154.568 259.61 154.599C259.696 154.631 259.772 154.683 259.833 154.751C259.895 154.819 259.938 154.901 259.96 154.99L260.54 156.51C260.7 156.9 260.54 157.16 260.19 157.39C258.91 158.066 257.488 158.43 256.04 158.45C253.04 158.45 252.25 156.64 252.25 153.99V145.86Z" fill="#373E66"/>
<path d="M270.09 142.78C270.997 142.756 271.9 142.918 272.742 143.256C273.585 143.593 274.349 144.099 274.99 144.742C275.63 145.385 276.132 146.152 276.466 146.996C276.8 147.84 276.958 148.743 276.93 149.65C276.93 149.91 276.93 150.43 276.86 150.65C276.847 150.822 276.771 150.984 276.645 151.103C276.519 151.221 276.353 151.288 276.18 151.29H265.85C265.925 152.415 266.431 153.469 267.264 154.229C268.098 154.989 269.192 155.398 270.32 155.37C271.648 155.382 272.941 154.937 273.98 154.11C274.3 153.88 274.59 153.79 274.85 154.17L275.73 155.53C275.99 155.86 276.12 156.15 275.66 156.53C274.089 157.772 272.132 158.423 270.13 158.37C265.59 158.37 262.65 154.81 262.65 150.54C262.65 146.27 265.59 142.78 270.09 142.78ZM273.72 148.94C273.703 148.474 273.594 148.015 273.399 147.591C273.204 147.167 272.927 146.786 272.584 146.47C272.241 146.154 271.839 145.909 271.4 145.749C270.962 145.59 270.496 145.519 270.03 145.54C269.054 145.486 268.095 145.808 267.351 146.441C266.607 147.074 266.134 147.968 266.03 148.94H273.72Z" fill="#373E66"/>
<path d="M294.8 142.78C296.356 142.744 297.886 143.173 299.197 144.012C300.507 144.851 301.537 146.062 302.156 147.49C302.774 148.918 302.953 150.497 302.668 152.027C302.384 153.557 301.65 154.967 300.559 156.077C299.469 157.187 298.073 157.947 296.548 158.259C295.024 158.571 293.441 158.421 292.003 157.829C290.564 157.237 289.335 156.228 288.472 154.934C287.609 153.639 287.152 152.116 287.16 150.56C287.157 148.52 287.957 146.56 289.386 145.105C290.816 143.649 292.76 142.814 294.8 142.78V142.78ZM294.8 155.35C295.748 155.406 296.69 155.177 297.506 154.692C298.323 154.207 298.975 153.488 299.378 152.629C299.782 151.77 299.92 150.809 299.772 149.872C299.625 148.934 299.2 148.062 298.553 147.367C297.905 146.673 297.064 146.189 296.139 145.978C295.213 145.766 294.246 145.837 293.361 146.18C292.476 146.524 291.714 147.125 291.174 147.905C290.633 148.686 290.34 149.611 290.33 150.56C290.296 151.171 290.386 151.783 290.595 152.358C290.804 152.933 291.126 153.46 291.544 153.908C291.961 154.355 292.465 154.714 293.025 154.962C293.584 155.209 294.188 155.341 294.8 155.35V155.35Z" fill="#373E66"/>
<path d="M307.27 146.12H305.32C305.132 146.117 304.953 146.042 304.821 145.909C304.688 145.777 304.613 145.597 304.61 145.41V143.82C304.606 143.726 304.621 143.631 304.655 143.543C304.69 143.455 304.742 143.375 304.808 143.308C304.875 143.242 304.955 143.19 305.043 143.155C305.131 143.121 305.226 143.106 305.32 143.11H307.27V141.39C307.27 137.39 309.18 135.08 312.8 135.08C314.345 135.063 315.846 135.59 317.04 136.57C317.161 136.67 317.241 136.81 317.265 136.965C317.289 137.12 317.255 137.278 317.17 137.41L316.23 138.77C316.01 139.13 315.65 139.16 315.23 138.9C314.534 138.401 313.696 138.138 312.84 138.15C311.15 138.15 310.47 139.51 310.47 141.39V143.11H314.72C314.814 143.109 314.907 143.126 314.993 143.161C315.08 143.196 315.159 143.249 315.225 143.315C315.291 143.381 315.343 143.46 315.379 143.547C315.414 143.633 315.431 143.726 315.43 143.82V145.41C315.42 145.595 315.342 145.77 315.211 145.901C315.08 146.032 314.905 146.11 314.72 146.12H310.5V157.36C310.493 157.546 310.415 157.722 310.284 157.854C310.152 157.985 309.976 158.063 309.79 158.07H308C307.814 158.063 307.638 157.985 307.506 157.854C307.375 157.722 307.297 157.546 307.29 157.36L307.27 146.12Z" fill="#373E66"/>
<path d="M326.82 136C326.82 135.919 326.836 135.838 326.867 135.763C326.898 135.688 326.944 135.619 327.002 135.562C327.059 135.504 327.128 135.458 327.203 135.427C327.278 135.396 327.359 135.38 327.44 135.38H334.82C336.735 135.38 338.571 136.141 339.925 137.495C341.279 138.849 342.04 140.685 342.04 142.6C342.04 144.515 341.279 146.351 339.925 147.705C338.571 149.059 336.735 149.82 334.82 149.82H330.13V157.43C330.125 157.593 330.058 157.748 329.943 157.863C329.828 157.978 329.673 158.045 329.51 158.05H327.41C327.246 158.05 327.088 157.985 326.972 157.868C326.855 157.752 326.79 157.594 326.79 157.43L326.82 136ZM334.76 146.65C335.297 146.65 335.829 146.542 336.324 146.333C336.818 146.123 337.266 145.816 337.639 145.429C338.012 145.043 338.304 144.585 338.497 144.084C338.689 143.582 338.779 143.047 338.76 142.51C338.762 141.989 338.658 141.474 338.457 140.994C338.255 140.514 337.958 140.08 337.585 139.717C337.212 139.354 336.769 139.069 336.284 138.881C335.799 138.693 335.28 138.604 334.76 138.62H330.16V146.62L334.76 146.65Z" fill="#373E66"/>
<path d="M345 143.82C345.012 143.636 345.09 143.462 345.221 143.331C345.352 143.2 345.526 143.122 345.71 143.11H347.52C347.706 143.117 347.882 143.195 348.014 143.326C348.145 143.458 348.223 143.634 348.23 143.82V151.82C348.23 154.28 349.23 155.38 351.15 155.38C351.915 155.382 352.662 155.147 353.287 154.706C353.912 154.265 354.385 153.641 354.64 152.92V143.85C354.64 143.24 354.94 143.14 355.49 143.14H357.14C357.329 143.147 357.509 143.223 357.645 143.354C357.782 143.485 357.865 143.661 357.88 143.85V157.39C357.87 157.58 357.788 157.759 357.65 157.891C357.513 158.023 357.33 158.098 357.14 158.1H356.36C355.97 158.1 355.81 157.84 355.68 157.48L355.29 156.41C354.699 157.073 353.968 157.596 353.15 157.942C352.332 158.287 351.447 158.447 350.56 158.41C346.1 158.41 345 155.47 345 151.55V143.82Z" fill="#373E66"/>
<path d="M362.38 136.11C362.387 135.924 362.465 135.748 362.596 135.616C362.728 135.485 362.904 135.407 363.09 135.4H364.93C365.115 135.412 365.291 135.49 365.423 135.62C365.555 135.751 365.636 135.925 365.65 136.11V143.56C366.844 143.08 368.114 142.816 369.4 142.78C370.399 142.799 371.384 143.018 372.297 143.423C373.21 143.828 374.033 144.411 374.718 145.139C375.403 145.866 375.935 146.723 376.284 147.659C376.633 148.595 376.791 149.592 376.75 150.59C376.75 154.86 373.75 158.42 369.75 158.42C367.902 158.374 366.142 157.622 364.83 156.32L364.5 157.42C364.41 157.81 364.18 158.07 363.82 158.07H363.05C362.862 158.067 362.683 157.992 362.551 157.859C362.418 157.727 362.343 157.547 362.34 157.36L362.38 136.11ZM369.3 155.35C371.73 155.35 373.51 153.11 373.51 150.59C373.534 149.374 373.081 148.198 372.247 147.313C371.413 146.429 370.265 145.907 369.05 145.86C367.857 145.867 366.681 146.144 365.61 146.67V153.18C365.984 153.831 366.52 154.374 367.167 154.754C367.814 155.135 368.549 155.34 369.3 155.35V155.35Z" fill="#373E66"/>
<path d="M380.47 136.11C380.48 135.923 380.559 135.747 380.692 135.615C380.826 135.484 381.003 135.407 381.19 135.4H383C383.184 135.412 383.358 135.49 383.489 135.621C383.62 135.752 383.698 135.926 383.71 136.11V157.36C383.703 157.546 383.625 157.722 383.494 157.854C383.362 157.985 383.186 158.063 383 158.07H381.19C381.002 158.067 380.821 157.992 380.687 157.86C380.553 157.728 380.475 157.548 380.47 157.36V136.11Z" fill="#373E66"/>
<path d="M387.82 137.73C387.813 137.444 387.864 137.16 387.968 136.894C388.073 136.628 388.229 136.386 388.428 136.181C388.628 135.976 388.866 135.813 389.129 135.701C389.392 135.589 389.674 135.531 389.96 135.53C390.259 135.51 390.56 135.551 390.842 135.652C391.125 135.752 391.384 135.91 391.603 136.115C391.822 136.32 391.997 136.568 392.117 136.843C392.236 137.118 392.298 137.415 392.298 137.715C392.298 138.015 392.236 138.312 392.117 138.587C391.997 138.862 391.822 139.11 391.603 139.315C391.384 139.52 391.125 139.678 390.842 139.778C390.56 139.879 390.259 139.92 389.96 139.9C389.676 139.9 389.396 139.844 389.134 139.734C388.872 139.625 388.635 139.465 388.436 139.263C388.237 139.061 388.08 138.821 387.974 138.558C387.868 138.295 387.816 138.014 387.82 137.73ZM388.34 143.82C388.35 143.635 388.428 143.46 388.559 143.329C388.69 143.198 388.865 143.12 389.05 143.11H390.87C391.054 143.124 391.226 143.203 391.357 143.333C391.487 143.464 391.566 143.636 391.58 143.82V157.36C391.57 157.545 391.492 157.72 391.361 157.851C391.23 157.982 391.055 158.06 390.87 158.07H389.05C388.863 158.065 388.686 157.989 388.554 157.856C388.421 157.724 388.345 157.547 388.34 157.36V143.82Z" fill="#373E66"/>
<path d="M402.85 142.78C403.899 142.747 404.94 142.966 405.886 143.418C406.833 143.87 407.657 144.543 408.29 145.38C408.353 145.457 408.4 145.547 408.427 145.642C408.455 145.738 408.463 145.839 408.451 145.938C408.439 146.037 408.407 146.132 408.357 146.219C408.307 146.305 408.24 146.38 408.16 146.44L407 147.51C406.58 147.9 406.29 147.61 406 147.35C405.45 146.86 404.789 146.511 404.075 146.331C403.361 146.151 402.614 146.145 401.897 146.316C401.181 146.486 400.516 146.826 399.959 147.309C399.402 147.791 398.969 148.4 398.698 149.085C398.426 149.769 398.324 150.509 398.4 151.242C398.475 151.975 398.727 152.678 399.132 153.293C399.538 153.908 400.086 154.416 400.729 154.774C401.373 155.132 402.094 155.33 402.83 155.35C404.77 155.35 405.55 154.25 406.36 153.5C406.42 153.428 406.495 153.369 406.578 153.327C406.662 153.285 406.754 153.261 406.847 153.255C406.941 153.249 407.034 153.263 407.123 153.295C407.211 153.326 407.292 153.376 407.36 153.44L408.36 154.25C408.71 154.57 408.87 154.93 408.61 155.32C407.981 156.287 407.117 157.078 406.1 157.62C405.082 158.162 403.943 158.437 402.79 158.42C401.772 158.423 400.763 158.222 399.824 157.829C398.885 157.436 398.034 156.86 397.321 156.133C396.608 155.406 396.048 154.544 395.673 153.597C395.299 152.65 395.117 151.638 395.14 150.62C395.124 148.558 395.927 146.575 397.373 145.105C398.818 143.635 400.788 142.798 402.85 142.78V142.78Z" fill="#373E66"/>
<path d="M420.5 136C420.502 135.838 420.567 135.683 420.681 135.568C420.794 135.452 420.948 135.385 421.11 135.38H423.25C423.331 135.38 423.411 135.396 423.486 135.427C423.56 135.459 423.628 135.504 423.685 135.562C423.742 135.62 423.786 135.688 423.816 135.763C423.847 135.839 423.861 135.919 423.86 136V145H435.71V136C435.71 135.919 435.726 135.838 435.757 135.763C435.788 135.688 435.834 135.619 435.892 135.562C435.949 135.504 436.018 135.458 436.093 135.427C436.168 135.396 436.249 135.38 436.33 135.38H438.47C438.632 135.385 438.786 135.452 438.899 135.568C439.013 135.683 439.077 135.838 439.08 136V157.43C439.077 157.592 439.013 157.747 438.899 157.862C438.786 157.978 438.632 158.045 438.47 158.05H436.33C436.166 158.05 436.008 157.985 435.892 157.868C435.775 157.752 435.71 157.594 435.71 157.43V148.1H423.86V157.45C423.861 157.531 423.847 157.611 423.816 157.687C423.786 157.762 423.742 157.83 423.685 157.888C423.628 157.946 423.56 157.991 423.486 158.023C423.411 158.054 423.331 158.07 423.25 158.07H421.11C420.948 158.065 420.794 157.998 420.681 157.882C420.567 157.767 420.502 157.612 420.5 157.45V136Z" fill="#373E66"/>
<path d="M450.64 142.78C451.547 142.756 452.449 142.918 453.291 143.256C454.133 143.593 454.897 144.099 455.536 144.742C456.176 145.385 456.677 146.153 457.01 146.997C457.342 147.84 457.499 148.743 457.47 149.65C457.47 149.91 457.47 150.43 457.41 150.65C457.395 150.822 457.318 150.982 457.192 151.1C457.067 151.218 456.902 151.286 456.73 151.29H446.4C446.474 152.415 446.981 153.469 447.814 154.229C448.648 154.989 449.742 155.398 450.87 155.37C452.198 155.381 453.49 154.936 454.53 154.11C454.85 153.88 455.14 153.79 455.4 154.17L456.28 155.53C456.53 155.86 456.66 156.15 456.21 156.53C454.636 157.774 452.675 158.425 450.67 158.37C446.14 158.37 443.19 154.81 443.19 150.54C443.19 146.27 446.14 142.78 450.64 142.78ZM454.27 148.94C454.253 148.474 454.144 148.015 453.949 147.591C453.754 147.167 453.477 146.786 453.134 146.47C452.791 146.154 452.389 145.909 451.95 145.749C451.512 145.59 451.046 145.519 450.58 145.54C449.604 145.483 448.643 145.805 447.898 146.438C447.154 147.071 446.681 147.968 446.58 148.94H454.27Z" fill="#373E66"/>
<path d="M465.73 148.61C466.746 148.629 467.755 148.783 468.73 149.07C468.8 146.7 468.21 145.63 466.33 145.63C464.913 145.675 463.51 145.917 462.16 146.35C462.063 146.372 461.963 146.373 461.866 146.352C461.769 146.332 461.678 146.291 461.598 146.232C461.518 146.173 461.452 146.098 461.404 146.011C461.356 145.925 461.328 145.829 461.32 145.73L461 144.5C460.968 144.412 460.955 144.317 460.962 144.223C460.97 144.13 460.997 144.038 461.043 143.956C461.088 143.874 461.151 143.802 461.226 143.746C461.301 143.689 461.388 143.65 461.48 143.63C463.138 143.065 464.878 142.778 466.63 142.78C471.42 142.78 471.87 145.67 471.87 149.39V157.39C471.863 157.576 471.785 157.752 471.654 157.884C471.522 158.015 471.346 158.093 471.16 158.1H470.09C469.8 158.1 469.64 157.97 469.48 157.58L469.12 156.58C467.893 157.785 466.24 158.457 464.52 158.45C463.863 158.482 463.207 158.374 462.595 158.131C461.983 157.889 461.431 157.519 460.974 157.045C460.517 156.571 460.167 156.006 459.948 155.385C459.728 154.765 459.644 154.105 459.7 153.45C459.74 150.69 461.88 148.61 465.73 148.61ZM465.24 155.77C465.915 155.739 466.575 155.56 467.175 155.248C467.774 154.935 468.298 154.496 468.71 153.96V151.46C467.847 151.126 466.925 150.969 466 151C464.25 151 462.92 151.9 462.92 153.45C462.901 153.76 462.948 154.07 463.058 154.36C463.168 154.65 463.338 154.913 463.557 155.133C463.777 155.352 464.04 155.522 464.33 155.632C464.62 155.742 464.93 155.789 465.24 155.77V155.77Z" fill="#373E66"/>
<path d="M476.42 136.11C476.427 135.924 476.505 135.748 476.636 135.616C476.768 135.485 476.944 135.407 477.13 135.4H478.94C479.124 135.412 479.298 135.49 479.429 135.621C479.56 135.752 479.638 135.926 479.65 136.11V157.36C479.643 157.546 479.565 157.722 479.434 157.854C479.302 157.985 479.126 158.063 478.94 158.07H477.13C476.943 158.067 476.763 157.992 476.631 157.859C476.498 157.727 476.423 157.547 476.42 157.36V136.11Z" fill="#373E66"/>
<path d="M485.29 145.86H483.57C483.383 145.857 483.203 145.782 483.071 145.649C482.938 145.517 482.863 145.337 482.86 145.15V143.82C482.856 143.726 482.871 143.631 482.905 143.543C482.94 143.455 482.992 143.375 483.058 143.308C483.125 143.242 483.205 143.19 483.293 143.155C483.381 143.121 483.476 143.106 483.57 143.11H485.29V138.93C485.29 138.837 485.308 138.744 485.344 138.658C485.38 138.572 485.432 138.494 485.498 138.428C485.564 138.362 485.642 138.31 485.728 138.274C485.814 138.238 485.907 138.22 486 138.22H487.84C487.932 138.221 488.022 138.241 488.106 138.277C488.19 138.314 488.265 138.367 488.329 138.433C488.392 138.499 488.441 138.577 488.474 138.662C488.507 138.747 488.523 138.839 488.52 138.93V143.11H492.52C492.614 143.107 492.708 143.124 492.796 143.158C492.884 143.193 492.964 143.245 493.032 143.311C493.099 143.378 493.152 143.457 493.188 143.544C493.224 143.632 493.241 143.726 493.24 143.82V145.15C493.23 145.337 493.151 145.513 493.018 145.645C492.884 145.776 492.707 145.853 492.52 145.86H488.52V153.86C488.52 155.12 489.01 155.38 489.72 155.38C490.567 155.351 491.393 155.106 492.12 154.67C492.194 154.617 492.281 154.582 492.371 154.57C492.462 154.558 492.554 154.568 492.64 154.599C492.726 154.631 492.802 154.683 492.863 154.751C492.925 154.819 492.968 154.901 492.99 154.99L493.58 156.51C493.74 156.9 493.58 157.16 493.22 157.39C491.944 158.067 490.525 158.43 489.08 158.45C486.08 158.45 485.29 156.64 485.29 153.99V145.86Z" fill="#373E66"/>
<path d="M496.59 136.11C496.597 135.924 496.675 135.748 496.806 135.616C496.938 135.485 497.114 135.407 497.3 135.4H499.11C499.295 135.412 499.471 135.49 499.603 135.62C499.735 135.751 499.816 135.925 499.83 136.11V144.34C501.063 143.358 502.584 142.81 504.16 142.78C508.41 142.78 509.96 145.78 509.96 149.84V157.36C509.95 157.545 509.872 157.72 509.741 157.851C509.61 157.982 509.435 158.06 509.25 158.07H507.43C507.243 158.065 507.066 157.989 506.934 157.856C506.801 157.724 506.725 157.547 506.72 157.36V149.78C506.72 147.32 505.72 145.86 503.72 145.86C502.934 145.842 502.158 146.034 501.471 146.415C500.784 146.797 500.211 147.354 499.81 148.03V157.36C499.813 157.458 499.796 157.555 499.759 157.645C499.721 157.735 499.666 157.817 499.595 157.884C499.524 157.951 499.44 158.002 499.347 158.034C499.255 158.066 499.157 158.079 499.06 158.07H497.3C497.112 158.067 496.933 157.992 496.801 157.859C496.668 157.727 496.593 157.547 496.59 157.36V136.11Z" fill="#373E66"/>
</svg>
